<svg xmlns="http://www.w3.org/2000/svg" id="check" width="22" height="22" viewBox="0 0 22 22"><path id="Path_67" data-name="Path 67" d="M11,0A11,11,0,1,0,22,11,11.012,11.012,0,0,0,11,0Zm0,20a9,9,0,1,1,9-9A9.01,9.01,0,0,1,11,20Z" fill="#103c58"></path><path id="Path_68" data-name="Path 68" d="M87.077,102.577l-5.429,5.914-2.488-2.711a.905.905,0,0,0-1.357,0,1.113,1.113,0,0,0,0,1.479l3.167,3.45a.922.922,0,0,0,.679.306h0a.922.922,0,0,0,.679-.306l6.108-6.653a1.113,1.113,0,0,0,0-1.479A.905.905,0,0,0,87.077,102.577Z" transform="translate(-72.118 -95.643)" fill="#4a4ba8"></path></svg>