<svg xmlns="http://www.w3.org/2000/svg" xmlns:xlink="http://www.w3.org/1999/xlink" width="44.94" height="44.94" viewBox="0 0 44.94 44.94"><defs><clipPath id="clip-path"><path id="Path_222" data-name="Path 222" d="M0,0H44.94V-44.94H0Z" fill="none"></path></clipPath></defs><g id="Group_5409" data-name="Group 5409" transform="translate(0 44.94)"><g id="Group_139" data-name="Group 139" clip-path="url(#clip-path)"><g id="Group_132" data-name="Group 132" transform="translate(8.988 -2.996)"><path id="Path_215" data-name="Path 215" d="M0,0H-4.494A4.5,4.5,0,0,1-8.988-4.494v-3a4.5,4.5,0,0,1,4.494-4.494H0a1.5,1.5,0,0,1,1.5,1.5V-1.5A1.5,1.5,0,0,1,0,0M-4.494-8.988a1.5,1.5,0,0,0-1.5,1.5v3A1.5,1.5,0,0,0-4.494-3h3V-8.988Z" fill="#fff"></path></g><g id="Group_133" data-name="Group 133" transform="translate(13.482)"><path id="Path_216" data-name="Path 216" d="M0,0H-3a3,3,0,0,1-3-3V-14.98a3,3,0,0,1,3-3H0a3,3,0,0,1,3,3V-3A3,3,0,0,1,0,0M-3-14.98V-3H0L0-14.98Z" fill="#fff"></path></g><g id="Group_134" data-name="Group 134" transform="translate(40.446 -2.996)"><path id="Path_217" data-name="Path 217" d="M0,0H-4.494a1.5,1.5,0,0,1-1.5-1.5v-8.988a1.5,1.5,0,0,1,1.5-1.5H0A4.5,4.5,0,0,1,4.494-7.49v3A4.5,4.5,0,0,1,0,0M-3-3H0a1.5,1.5,0,0,0,1.5-1.5v-3A1.5,1.5,0,0,0,0-8.988H-3Z" fill="#fff"></path></g><g id="Group_135" data-name="Group 135" transform="translate(34.454)"><path id="Path_218" data-name="Path 218" d="M0,0H-3a3,3,0,0,1-3-3V-14.98a3,3,0,0,1,3-3H0a3,3,0,0,1,3,3V-3A3,3,0,0,1,0,0M-3-3H0V-14.98H-3Z" fill="#fff"></path></g><g id="Group_136" data-name="Group 136" transform="translate(40.446 -11.984)"><path id="Path_219" data-name="Path 219" d="M0,0A1.5,1.5,0,0,1-1.5-1.5V-11.984a16.466,16.466,0,0,0-4.118-10.9A1.5,1.5,0,0,1-5.483-25a1.5,1.5,0,0,1,2.114.133A19.451,19.451,0,0,1,1.5-11.984V-1.5A1.5,1.5,0,0,1,0,0" fill="#fff"></path></g><g id="Group_137" data-name="Group 137" transform="translate(4.494 -11.984)"><path id="Path_220" data-name="Path 220" d="M0,0A1.5,1.5,0,0,1-1.5-1.5V-11.984A19.452,19.452,0,0,1,3.371-24.866,1.5,1.5,0,0,1,5.486-25a1.5,1.5,0,0,1,.131,2.115A16.46,16.46,0,0,0,1.5-11.984V-1.5A1.5,1.5,0,0,1,0,0" fill="#fff"></path></g><g id="Group_138" data-name="Group 138" transform="translate(11.722 -31.919)"><path id="Path_221" data-name="Path 221" d="M0,0A4.235,4.235,0,0,1-1.9-.451,4.2,4.2,0,0,1-4.234-4.235a4.423,4.423,0,0,1,1.26-3.131,19.476,19.476,0,0,1,27.441,0,4.418,4.418,0,0,1,1.261,3.124v.01A4.207,4.207,0,0,1,23.392-.452,4.232,4.232,0,0,1,18.939-.86C13.333-5.07,8.163-5.07,2.557-.86A4.252,4.252,0,0,1,0,0M10.748-10.025A16.381,16.381,0,0,0-.863-5.24a1.408,1.408,0,0,0-.375,1A1.2,1.2,0,0,0-.559-3.131,1.231,1.231,0,0,0,.758-3.256q10-7.509,19.98,0a1.244,1.244,0,0,0,1.315.124,1.2,1.2,0,0,0,.679-1.1v-.01a1.41,1.41,0,0,0-.376-1,16.371,16.371,0,0,0-11.608-4.782" fill="#2bc700"></path></g></g></g></svg>