<svg xmlns="http://www.w3.org/2000/svg" xmlns:xlink="http://www.w3.org/1999/xlink" width="44.067" height="44.067" viewBox="0 0 44.067 44.067"><defs><clipPath id="clip-path"><path id="Path_79" data-name="Path 79" d="M0-.873H44.067V-44.94H0Z" transform="translate(0 44.94)" fill="#fff"></path></clipPath></defs><g id="Group_2787" data-name="Group 2787" transform="translate(0 44.94)"><g id="Group_86" data-name="Group 86" transform="translate(0 -44.94)" clip-path="url(#clip-path)"><g id="Group_76" data-name="Group 76" transform="translate(0 0)"><path id="Path_69" data-name="Path 69" d="M-.757-.7H-33.072a5.882,5.882,0,0,1-5.876-5.876v-23.5a5.882,5.882,0,0,1,5.876-5.876H-.757a5.882,5.882,0,0,1,5.876,5.876v23.5A5.882,5.882,0,0,1-.757-.7M-33.072-33.014a2.941,2.941,0,0,0-2.938,2.938v23.5a2.941,2.941,0,0,0,2.938,2.938H-.757A2.941,2.941,0,0,0,2.181-6.574v-23.5A2.941,2.941,0,0,0-.757-33.014Z" transform="translate(38.948 35.952)" fill="#023c58"></path></g><g id="Group_77" data-name="Group 77" transform="translate(16.158 32.316)"><path id="Path_70" data-name="Path 70" d="M-.2-.233H-9.017A1.469,1.469,0,0,1-10.486-1.7v-8.813a1.469,1.469,0,0,1,1.469-1.469H-.2a1.469,1.469,0,0,1,1.469,1.469V-1.7A1.469,1.469,0,0,1-.2-.233M-7.548-3.171h5.876V-9.046H-7.548Z" transform="translate(10.486 11.984)" fill="#023c58"></path></g><g id="Group_78" data-name="Group 78" transform="translate(16.158 32.316)"><path id="Path_71" data-name="Path 71" d="M-.2-.233H-9.017A1.469,1.469,0,0,1-10.486-1.7v-8.813a1.469,1.469,0,0,1,1.469-1.469H-.2a1.469,1.469,0,0,1,1.469,1.469V-1.7A1.469,1.469,0,0,1-.2-.233M-7.548-3.171h5.876V-9.046H-7.548Z" transform="translate(10.486 11.984)" fill="#023c58"></path></g><g id="Group_79" data-name="Group 79" transform="translate(8.079 41.129)"><path id="Path_72" data-name="Path 72" d="M-.524-.058H-25.5a1.469,1.469,0,0,1-1.469-1.469A1.469,1.469,0,0,1-25.5-3H-.524A1.469,1.469,0,0,1,.945-1.527,1.469,1.469,0,0,1-.524-.058" transform="translate(26.964 2.996)" fill="#023c58"></path></g><g id="Group_80" data-name="Group 80" transform="translate(0 26.734)"><path id="Path_73" data-name="Path 73" d="M-.815-.058h-39.66a1.469,1.469,0,0,1-1.469-1.469A1.469,1.469,0,0,1-40.475-3H-.815A1.469,1.469,0,0,1,.654-1.527,1.469,1.469,0,0,1-.815-.058" transform="translate(41.944 2.996)" fill="#023c58"></path></g><g id="Group_81" data-name="Group 81" transform="translate(24.341 4.407)"><path id="Path_74" data-name="Path 74" d="M-.079-.158A3.992,3.992,0,0,1-4.066-4.145,3.992,3.992,0,0,1-.079-8.132,3.992,3.992,0,0,1,3.908-4.145,3.992,3.992,0,0,1-.079-.158m0-5.036A1.05,1.05,0,0,0-1.128-4.145,1.05,1.05,0,0,0-.079-3.1,1.05,1.05,0,0,0,.97-4.145,1.05,1.05,0,0,0-.079-5.194" transform="translate(4.066 8.132)" fill="#2bc700"></path></g><g id="Group_82" data-name="Group 82" transform="translate(11.751 10.702)"><path id="Path_75" data-name="Path 75" d="M-.079-.158A3.992,3.992,0,0,1-4.066-4.145,3.992,3.992,0,0,1-.079-8.132,3.992,3.992,0,0,1,3.908-4.145,3.992,3.992,0,0,1-.079-.158m0-5.036A1.05,1.05,0,0,0-1.128-4.145,1.05,1.05,0,0,0-.079-3.1,1.05,1.05,0,0,0,.97-4.145,1.05,1.05,0,0,0-.079-5.194" transform="translate(4.066 8.132)" fill="#2bc700"></path></g><g id="Group_83" data-name="Group 83" transform="translate(24.341 16.997)"><path id="Path_76" data-name="Path 76" d="M-.079-.158A3.992,3.992,0,0,1-4.066-4.145,3.992,3.992,0,0,1-.079-8.132,3.992,3.992,0,0,1,3.908-4.145,3.992,3.992,0,0,1-.079-.158m0-5.036A1.05,1.05,0,0,0-1.128-4.145,1.05,1.05,0,0,0-.079-3.1,1.05,1.05,0,0,0,.97-4.145,1.05,1.05,0,0,0-.079-5.194" transform="translate(4.066 8.132)" fill="#2bc700"></path></g><g id="Group_84" data-name="Group 84" transform="translate(16.531 14.323)"><path id="Path_77" data-name="Path 77" d="M-.19-.137A1.456,1.456,0,0,1-.833-.286L-8.961-4.254a1.469,1.469,0,0,1-.675-1.965,1.464,1.464,0,0,1,1.964-.675L.456-2.926A1.469,1.469,0,0,1,1.131-.961,1.468,1.468,0,0,1-.19-.137" transform="translate(9.786 7.045)" fill="#2bc700"></path></g><g id="Group_85" data-name="Group 85" transform="translate(16.531 8.146)"><path id="Path_78" data-name="Path 78" d="M-.029-.137A1.467,1.467,0,0,1-1.35-.962,1.467,1.467,0,0,1-.674-2.926L7.453-6.893a1.465,1.465,0,0,1,1.964.676,1.467,1.467,0,0,1-.676,1.964L.613-.286a1.449,1.449,0,0,1-.642.149" transform="translate(1.5 7.044)" fill="#2bc700"></path></g></g></g></svg>