<svg xmlns="http://www.w3.org/2000/svg" xmlns:xlink="http://www.w3.org/1999/xlink" width="64" height="101.632" viewBox="0 0 64 101.632"><defs><clipPath id="clip-path"><path id="Path_42" data-name="Path 42" d="M0-17.28H26V-40.368H0Z" transform="translate(0 40.368)" fill="none"></path></clipPath></defs><g id="Group_6204" data-name="Group 6204" transform="translate(-80 -2290.368)"><text id="Partners" transform="translate(80 2388)" fill="#103c58" font-size="12" font-family="Red Hat Display" font-weight="600"><tspan x="0" y="0">PARTNERS</tspan></text><line id="Line_2" data-name="Line 2" y2="48" transform="translate(93.5 2323)" fill="none" stroke="#103c58" stroke-width="1"></line><g id="Group_46" data-name="Group 46" transform="translate(80.5 2330.736)"><g id="Group_45" data-name="Group 45" transform="translate(0 -40.368)" clip-path="url(#clip-path)"><g id="Group_39" data-name="Group 39" transform="translate(4.765 15.703)"><path id="Path_36" data-name="Path 36" d="M-10.269-5.527h-11.16A2.529,2.529,0,0,1-23.5-6.59a2.528,2.528,0,0,1-.351-2.3l.4-1.2a3.714,3.714,0,0,1,3.056-2.5,39.681,39.681,0,0,1,4.552-.322,39.681,39.681,0,0,1,4.552.322,3.713,3.713,0,0,1,3.056,2.5h0l.4,1.2a2.532,2.532,0,0,1-.352,2.3,2.529,2.529,0,0,1-2.075,1.063m-5.58-5.672a37.914,37.914,0,0,0-4.342.309,1.992,1.992,0,0,0-1.64,1.339l-.4,1.2a.834.834,0,0,0,.116.761.836.836,0,0,0,.685.351h11.16a.836.836,0,0,0,.685-.351.835.835,0,0,0,.116-.76l-.4-1.2a1.992,1.992,0,0,0-1.64-1.339,37.914,37.914,0,0,0-4.342-.309" transform="translate(23.989 12.913)" fill="#023c58"></path></g><g id="Group_40" data-name="Group 40" transform="translate(7.795 4.637)"><path id="Path_37" data-name="Path 37" d="M-3.825-7.649a5.116,5.116,0,0,1-5.11-5.11,5.116,5.116,0,0,1,5.11-5.11,5.116,5.116,0,0,1,5.11,5.11,5.116,5.116,0,0,1-5.11,5.11m0-8.507a3.4,3.4,0,0,0-3.4,3.4,3.4,3.4,0,0,0,3.4,3.4,3.4,3.4,0,0,0,3.4-3.4,3.4,3.4,0,0,0-3.4-3.4" transform="translate(8.935 17.87)" fill="#023c58"></path></g><g id="Group_41" data-name="Group 41" transform="translate(19.148 10.239)"><path id="Path_38" data-name="Path 38" d="M-1.883-5.126a.857.857,0,0,1-.857-.857.857.857,0,0,1,.857-.857H.039a.692.692,0,0,0,.567-.291A.691.691,0,0,0,.7-7.76l-.365-1.1A1.747,1.747,0,0,0-1.1-10.029c-.883-.109-1.721-.186-2.491-.233a.856.856,0,0,1-.8-.907.859.859,0,0,1,.906-.8c.806.049,1.68.13,2.6.243A3.464,3.464,0,0,1,1.961-9.4L2.327-8.3A2.388,2.388,0,0,1,2-6.129a2.385,2.385,0,0,1-1.957,1Z" transform="translate(4.399 11.975)" fill="#2bc700"></path></g><g id="Group_42" data-name="Group 42" transform="translate(13.987 0)"><path id="Path_39" data-name="Path 39" d="M-4.5-6.872a.857.857,0,0,1-.788-.521A.857.857,0,0,1-4.84-8.518,3.029,3.029,0,0,0-2.995-11.31a3.008,3.008,0,0,0-.889-2.144,3.011,3.011,0,0,0-2.144-.888h0a3.051,3.051,0,0,0-2.836,1.957.856.856,0,0,1-1.1.5.856.856,0,0,1-.5-1.1,4.772,4.772,0,0,1,4.436-3.063h0a4.714,4.714,0,0,1,3.355,1.389,4.711,4.711,0,0,1,1.391,3.356A4.742,4.742,0,0,1-4.167-6.942a.853.853,0,0,1-.336.069" transform="translate(10.521 16.055)" fill="#2bc700"></path></g><g id="Group_43" data-name="Group 43" transform="translate(0 10.242)"><path id="Path_40" data-name="Path 40" d="M-1.807-5.126a2.387,2.387,0,0,1-1.956-1A2.389,2.389,0,0,1-4.1-8.3l.365-1.1A3.467,3.467,0,0,1-.876-11.731c.922-.114,1.8-.2,2.6-.244a.859.859,0,0,1,.907.8.856.856,0,0,1-.8.907c-.766.047-1.6.126-2.492.235A1.743,1.743,0,0,0-2.1-8.856l-.365,1.1a.693.693,0,0,0,.1.63.689.689,0,0,0,.566.29H.117a.857.857,0,0,1,.857.857.857.857,0,0,1-.857.857H-1.806Z" transform="translate(4.221 11.976)" fill="#2bc700"></path></g><g id="Group_44" data-name="Group 44" transform="translate(2.768 0)"><path id="Path_41" data-name="Path 41" d="M-2.414-6.873a.862.862,0,0,1-.336-.069,4.741,4.741,0,0,1-2.889-4.367A4.713,4.713,0,0,1-4.25-14.666,4.719,4.719,0,0,1-.894-16.057h0a4.773,4.773,0,0,1,4.439,3.063.856.856,0,0,1-.5,1.1.858.858,0,0,1-1.1-.5A3.052,3.052,0,0,0-.894-14.343h0a3.012,3.012,0,0,0-2.144.889,3.009,3.009,0,0,0-.888,2.144A3.029,3.029,0,0,0-2.078-8.519.857.857,0,0,1-1.626-7.4a.856.856,0,0,1-.788.522" transform="translate(5.639 16.057)" fill="#2bc700"></path></g></g></g></g></svg>