<svg xmlns="http://www.w3.org/2000/svg" xmlns:xlink="http://www.w3.org/1999/xlink" width="47.936" height="44.94" viewBox="0 0 47.936 44.94"><defs><clipPath id="clip-path"><path id="Path_97" data-name="Path 97" d="M0,0H47.936V-44.94H0Z" fill="none"></path></clipPath></defs><g id="Group_5405" data-name="Group 5405" transform="translate(0 44.94)"><g id="Group_108" data-name="Group 108" clip-path="url(#clip-path)"><g id="Group_100" data-name="Group 100" transform="translate(32.956)"><path id="Path_89" data-name="Path 89" d="M0,0H-17.976A4.5,4.5,0,0,1-22.47-4.494V-40.446a4.5,4.5,0,0,1,4.494-4.494H0a4.5,4.5,0,0,1,4.494,4.494V-4.494A4.5,4.5,0,0,1,0,0M-17.976-41.944a1.5,1.5,0,0,0-1.5,1.5V-4.494a1.5,1.5,0,0,0,1.5,1.5H0a1.5,1.5,0,0,0,1.5-1.5V-40.446a1.5,1.5,0,0,0-1.5-1.5Z" fill="#023c58"></path></g><g id="Group_101" data-name="Group 101" transform="translate(32.956 -4.494)"><path id="Path_90" data-name="Path 90" d="M0,0H-17.976A4.5,4.5,0,0,1-22.47-4.494a1.5,1.5,0,0,1,1.5-1.5,1.5,1.5,0,0,1,1.5,1.5,1.5,1.5,0,0,0,1.5,1.5H0a1.5,1.5,0,0,0,1.5-1.5A1.5,1.5,0,0,1,3-5.992a1.5,1.5,0,0,1,1.5,1.5A4.5,4.5,0,0,1,0,0" fill="#023c58"></path></g><g id="Group_102" data-name="Group 102" transform="translate(23.968 -37.45)"><path id="Path_91" data-name="Path 91" d="M0,0H-4.494a1.5,1.5,0,0,1-1.5-1.5A1.5,1.5,0,0,1-4.494-3H0A1.5,1.5,0,0,1,1.5-1.5,1.5,1.5,0,0,1,0,0" fill="#023c58"></path></g><g id="Group_103" data-name="Group 103" transform="translate(29.96 -37.45)"><path id="Path_92" data-name="Path 92" d="M0,0H-1.5A1.5,1.5,0,0,1-3-1.5,1.5,1.5,0,0,1-1.5-3H0A1.5,1.5,0,0,1,1.5-1.5,1.5,1.5,0,0,1,0,0" fill="#023c58"></path></g><g id="Group_104" data-name="Group 104" transform="translate(43.442 -32.956)"><path id="Path_93" data-name="Path 93" d="M0,0A1.5,1.5,0,0,1-1.5-1.5V-7.49A1.5,1.5,0,0,1,0-8.988a1.5,1.5,0,0,1,1.5,1.5V-1.5A1.5,1.5,0,0,1,0,0" fill="#2bc700"></path></g><g id="Group_105" data-name="Group 105" transform="translate(46.438 -35.952)"><path id="Path_94" data-name="Path 94" d="M0,0H-5.992a1.5,1.5,0,0,1-1.5-1.5A1.5,1.5,0,0,1-5.992-3H0A1.5,1.5,0,0,1,1.5-1.5,1.5,1.5,0,0,1,0,0" fill="#2bc700"></path></g><g id="Group_106" data-name="Group 106" transform="translate(4.494 -4.494)"><path id="Path_95" data-name="Path 95" d="M0,0A1.5,1.5,0,0,1-1.5-1.5V-7.49A1.5,1.5,0,0,1,0-8.988a1.5,1.5,0,0,1,1.5,1.5V-1.5A1.5,1.5,0,0,1,0,0" fill="#2bc700"></path></g><g id="Group_107" data-name="Group 107" transform="translate(7.49 -7.49)"><path id="Path_96" data-name="Path 96" d="M0,0H-5.992a1.5,1.5,0,0,1-1.5-1.5A1.5,1.5,0,0,1-5.992-3H0A1.5,1.5,0,0,1,1.5-1.5,1.5,1.5,0,0,1,0,0" fill="#2bc700"></path></g></g></g></svg>