<svg xmlns="http://www.w3.org/2000/svg" xmlns:xlink="http://www.w3.org/1999/xlink" width="83.5" height="102.558" viewBox="0 0 83.5 102.558"><defs><clipPath id="clip-path"><path id="Path_51" data-name="Path 51" d="M0-18.309H26V-43.442H0Z" transform="translate(0 43.442)" fill="none"></path></clipPath></defs><g id="Group_6205" data-name="Group 6205" transform="translate(-1756.5 -2880.721)"><text id="INTELLINET" transform="translate(1827.5 2979.279)" fill="#103c58" font-size="12" font-family="Red Hat Display" font-weight="600"><tspan x="-70" y="0">INTELLINET</tspan></text><line id="Line_3" data-name="Line 3" y2="48" transform="translate(1827 2915.721)" fill="none" stroke="#103c58" stroke-width="1"></line><g id="Group_56" data-name="Group 56" transform="translate(1814 2924.163)"><g id="Group_55" data-name="Group 55" transform="translate(0 -43.442)" clip-path="url(#clip-path)"><g id="Group_47" data-name="Group 47" transform="translate(0 10.4)"><path id="Path_43" data-name="Path 43" d="M-3.157-10.733h-2.6A1.735,1.735,0,0,1-7.49-12.466V-23.733a1.735,1.735,0,0,1,1.733-1.733h2.6a1.735,1.735,0,0,1,1.733,1.733v11.267a1.735,1.735,0,0,1-1.733,1.733m-2.6-1.733h2.6V-23.733h-2.6Z" transform="translate(7.49 25.466)" fill="#023c58"></path></g><g id="Group_48" data-name="Group 48" transform="translate(12.133 9.533)"><path id="Path_44" data-name="Path 44" d="M-7.576-3.788h-3.467a.867.867,0,0,1-.867-.867.867.867,0,0,1,.867-.867h3.467a.867.867,0,0,0,.867-.867.867.867,0,0,0-.867-.867h-9.533a.867.867,0,0,1-.867-.867.867.867,0,0,1,.867-.867h9.533a2.6,2.6,0,0,1,2.6,2.6,2.6,2.6,0,0,1-2.6,2.6" transform="translate(17.976 8.988)" fill="#023c58"></path></g><g id="Group_49" data-name="Group 49" transform="translate(19.067 13)"><path id="Path_45" data-name="Path 45" d="M-3.157-3.788H-6.623a.867.867,0,0,1-.867-.867.867.867,0,0,1,.867-.867h3.467a.867.867,0,0,0,.867-.867.867.867,0,0,0-.867-.867H-6.623a.867.867,0,0,1-.867-.867.867.867,0,0,1,.867-.867h3.467a2.6,2.6,0,0,1,2.6,2.6,2.6,2.6,0,0,1-2.6,2.6" transform="translate(7.49 8.988)" fill="#023c58"></path></g><g id="Group_50" data-name="Group 50" transform="translate(18.2 16.467)"><path id="Path_46" data-name="Path 46" d="M-3.157-3.788H-6.623a.867.867,0,0,1-.867-.867.867.867,0,0,1,.867-.867h3.467a.867.867,0,0,0,.867-.867.867.867,0,0,0-.867-.867H-6.623a.867.867,0,0,1-.867-.867.867.867,0,0,1,.867-.867h3.467a2.6,2.6,0,0,1,2.6,2.6,2.6,2.6,0,0,1-2.6,2.6" transform="translate(7.49 8.988)" fill="#023c58"></path></g><g id="Group_51" data-name="Group 51" transform="translate(4.333 19.933)"><path id="Path_47" data-name="Path 47" d="M-12-3.788H-23.262c-1.99,0-4.6-2.125-4.888-2.367a.866.866,0,0,1-.111-1.22.866.866,0,0,1,1.22-.112c.915.76,2.749,1.966,3.779,1.966H-12a.867.867,0,0,0,.867-.867A.867.867,0,0,0-12-7.255h-1.733a.867.867,0,0,1-.867-.867.867.867,0,0,1,.867-.867H-12a2.6,2.6,0,0,1,2.6,2.6,2.6,2.6,0,0,1-2.6,2.6" transform="translate(28.462 8.988)" fill="#023c58"></path></g><g id="Group_52" data-name="Group 52" transform="translate(4.333 0)"><path id="Path_48" data-name="Path 48" d="M-.631-9.47a.863.863,0,0,1-.275-.045.866.866,0,0,1-.547-1.1,25.178,25.178,0,0,1,2.7-5.407A10.938,10.938,0,0,0,2.8-20.9,1.719,1.719,0,0,1,4.521-22.47h.915a2.6,2.6,0,0,1,2.6,2.6v7.8a.867.867,0,0,1-.867.867A.867.867,0,0,1,6.3-12.07v-7.8a.867.867,0,0,0-.867-.867H4.521a12.668,12.668,0,0,1-1.831,5.681,23.875,23.875,0,0,0-2.5,4.993.867.867,0,0,1-.822.592" transform="translate(1.498 22.47)" fill="#023c58"></path></g><g id="Group_53" data-name="Group 53" transform="translate(18.2 0.867)"><path id="Path_49" data-name="Path 49" d="M-.631-3.788A.867.867,0,0,1-1.5-4.655V-8.121a.867.867,0,0,1,.867-.867.867.867,0,0,1,.867.867v3.467a.867.867,0,0,1-.867.867" transform="translate(1.498 8.988)" fill="#2bc700"></path></g><g id="Group_54" data-name="Group 54" transform="translate(16.467 2.6)"><path id="Path_50" data-name="Path 50" d="M-3.157-1.263H-6.623a.867.867,0,0,1-.867-.867A.867.867,0,0,1-6.623-3h3.467a.867.867,0,0,1,.867.867.867.867,0,0,1-.867.867" transform="translate(7.49 2.996)" fill="#2bc700"></path></g></g></g></g></svg>