<svg xmlns="http://www.w3.org/2000/svg" xmlns:xlink="http://www.w3.org/1999/xlink" width="44.94" height="43.442" viewBox="0 0 44.94 43.442"><defs><clipPath id="clip-path"><path id="Path_88" data-name="Path 88" d="M0,0H44.94V-43.442H0Z" fill="#fff"></path></clipPath></defs><g id="Group_2788" data-name="Group 2788" transform="translate(0 43.442)"><g id="Group_98" data-name="Group 98" clip-path="url(#clip-path)"><g id="Group_90" data-name="Group 90" transform="translate(7.49)"><path id="Path_80" data-name="Path 80" d="M0,0H-4.494a3,3,0,0,1-3-3V-22.47a3,3,0,0,1,3-3H0a3,3,0,0,1,3,3V-3A3,3,0,0,1,0,0M-4.494-3H0V-22.47H-4.494Z" fill="#023c58"></path></g><g id="Group_91" data-name="Group 91" transform="translate(38.948 -17.976)"><path id="Path_81" data-name="Path 81" d="M0,0H-5.992a1.5,1.5,0,0,1-1.5-1.5A1.5,1.5,0,0,1-5.992-3H0a1.5,1.5,0,0,0,1.5-1.5A1.5,1.5,0,0,0,0-5.992H-16.478a1.5,1.5,0,0,1-1.5-1.5,1.5,1.5,0,0,1,1.5-1.5H0A4.5,4.5,0,0,1,4.494-4.494,4.5,4.5,0,0,1,0,0" fill="#023c58"></path></g><g id="Group_92" data-name="Group 92" transform="translate(40.446 -11.984)"><path id="Path_82" data-name="Path 82" d="M0,0H-5.992a1.5,1.5,0,0,1-1.5-1.5A1.5,1.5,0,0,1-5.992-3H0a1.5,1.5,0,0,0,1.5-1.5A1.5,1.5,0,0,0,0-5.992H-5.992a1.5,1.5,0,0,1-1.5-1.5,1.5,1.5,0,0,1,1.5-1.5H0A4.5,4.5,0,0,1,4.494-4.494,4.5,4.5,0,0,1,0,0" fill="#023c58"></path></g><g id="Group_93" data-name="Group 93" transform="translate(38.948 -5.992)"><path id="Path_83" data-name="Path 83" d="M0,0H-5.992a1.5,1.5,0,0,1-1.5-1.5A1.5,1.5,0,0,1-5.992-3H0a1.5,1.5,0,0,0,1.5-1.5A1.5,1.5,0,0,0,0-5.992H-5.992a1.5,1.5,0,0,1-1.5-1.5,1.5,1.5,0,0,1,1.5-1.5H0A4.5,4.5,0,0,1,4.494-4.494,4.5,4.5,0,0,1,0,0" fill="#023c58"></path></g><g id="Group_94" data-name="Group 94" transform="translate(35.952)"><path id="Path_84" data-name="Path 84" d="M0,0H-19.474c-3.439,0-7.946-3.673-8.449-4.092A1.5,1.5,0,0,1-28.115-6.2a1.5,1.5,0,0,1,2.109-.193C-24.425-5.081-21.254-3-19.474-3H0a1.5,1.5,0,0,0,1.5-1.5A1.5,1.5,0,0,0,0-5.992H-3a1.5,1.5,0,0,1-1.5-1.5A1.5,1.5,0,0,1-3-8.988H0A4.5,4.5,0,0,1,4.494-4.494,4.5,4.5,0,0,1,0,0" fill="#023c58"></path></g><g id="Group_95" data-name="Group 95" transform="translate(8.988 -20.972)"><path id="Path_85" data-name="Path 85" d="M0,0A1.491,1.491,0,0,1-.475-.078a1.5,1.5,0,0,1-.946-1.894,43.519,43.519,0,0,1,4.669-9.345,18.906,18.906,0,0,0,2.675-8.438A2.972,2.972,0,0,1,8.9-22.47h1.581a4.5,4.5,0,0,1,4.494,4.494V-4.494a1.5,1.5,0,0,1-1.5,1.5,1.5,1.5,0,0,1-1.5-1.5V-17.976a1.5,1.5,0,0,0-1.5-1.5H8.9A21.9,21.9,0,0,1,5.74-9.655,41.267,41.267,0,0,0,1.421-1.024,1.5,1.5,0,0,1,0,0" fill="#023c58"></path></g><g id="Group_96" data-name="Group 96" transform="translate(32.956 -32.956)"><path id="Path_86" data-name="Path 86" d="M0,0A1.5,1.5,0,0,1-1.5-1.5V-7.49A1.5,1.5,0,0,1,0-8.988a1.5,1.5,0,0,1,1.5,1.5V-1.5A1.5,1.5,0,0,1,0,0" fill="#2bc700"></path></g><g id="Group_97" data-name="Group 97" transform="translate(35.952 -35.952)"><path id="Path_87" data-name="Path 87" d="M0,0H-5.992a1.5,1.5,0,0,1-1.5-1.5A1.5,1.5,0,0,1-5.992-3H0A1.5,1.5,0,0,1,1.5-1.5,1.5,1.5,0,0,1,0,0" fill="#2bc700"></path></g></g></g></svg>