<svg xmlns="http://www.w3.org/2000/svg" xmlns:xlink="http://www.w3.org/1999/xlink" width="80" height="74.133" viewBox="0 0 80 74.133"><defs><clipPath id="clip-path"><path id="Path_26" data-name="Path 26" d="M0-25.251H80V-99.384H0Z" transform="translate(0 99.384)" fill="none"></path></clipPath></defs><g id="Group_25" data-name="Group 25" transform="translate(0 99.384)"><g id="Group_24" data-name="Group 24" transform="translate(0 -99.384)" clip-path="url(#clip-path)"><g id="Group_17" data-name="Group 17" transform="translate(0 0)"><path id="Path_19" data-name="Path 19" d="M-5.429-21.531a2.663,2.663,0,0,1-.771-.115A21.473,21.473,0,0,1-21.366-42.073a21.342,21.342,0,0,1,8.007-16.647A26.7,26.7,0,0,1,13.3-84.74,26.445,26.445,0,0,1,36.388-71.376c.309-.02.612-.031.913-.031a16.017,16.017,0,0,1,16,16,14.1,14.1,0,0,1-.263,2.677,18.584,18.584,0,0,1,5.6,13.323A18.641,18.641,0,0,1,45.849-21.686a2.666,2.666,0,0,1-3.372-1.691,2.669,2.669,0,0,1,1.692-3.372A13.313,13.313,0,0,0,53.3-39.407a13.285,13.285,0,0,0-4.909-10.33,2.666,2.666,0,0,1-.88-2.79,10.5,10.5,0,0,0,.456-2.88A10.679,10.679,0,0,0,37.3-66.073a10.618,10.618,0,0,0-1.928.2,2.681,2.681,0,0,1-2.881-1.463A21.181,21.181,0,0,0,13.3-79.407,21.358,21.358,0,0,0-8.033-58.073l.032.589a2.668,2.668,0,0,1-1.143,2.268,16.018,16.018,0,0,0-6.889,13.142A16.1,16.1,0,0,0-4.66-26.752a2.668,2.668,0,0,1,1.783,3.323,2.67,2.67,0,0,1-2.552,1.9" transform="translate(21.366 84.74)" fill="#023c58"></path></g><g id="Group_18" data-name="Group 18" transform="translate(27.733 43.2)"><path id="Path_20" data-name="Path 20" d="M-.908-10.536A2.667,2.667,0,0,1-3.575-13.2V-38.8A2.667,2.667,0,0,1-.908-41.469,2.667,2.667,0,0,1,1.758-38.8v25.6A2.667,2.667,0,0,1-.908-10.536" transform="translate(3.575 41.469)" fill="#2bc700"></path></g><g id="Group_19" data-name="Group 19" transform="translate(21.333 43.2)"><path id="Path_21" data-name="Path 21" d="M-5.268-4a2.66,2.66,0,0,1-1.886-.781l-4.514-4.514-4.514,4.514a2.666,2.666,0,0,1-3.771,0,2.666,2.666,0,0,1,0-3.771l6.4-6.4a2.665,2.665,0,0,1,3.771,0l6.4,6.4a2.667,2.667,0,0,1,0,3.771A2.66,2.66,0,0,1-5.268-4" transform="translate(20.735 15.73)" fill="#2bc700"></path></g><g id="Group_20" data-name="Group 20" transform="translate(46.934 43.2)"><path id="Path_22" data-name="Path 22" d="M-.908-10.536A2.667,2.667,0,0,1-3.575-13.2V-38.8A2.667,2.667,0,0,1-.908-41.469,2.667,2.667,0,0,1,1.758-38.8v25.6A2.667,2.667,0,0,1-.908-10.536" transform="translate(3.575 41.469)" fill="#2bc700"></path></g><g id="Group_21" data-name="Group 21" transform="translate(40.534 62.4)"><path id="Path_23" data-name="Path 23" d="M-3.088-4a2.66,2.66,0,0,1-1.886-.781l-6.4-6.4a2.665,2.665,0,0,1,0-3.771,2.665,2.665,0,0,1,3.771,0l4.514,4.514,4.514-4.514a2.665,2.665,0,0,1,3.771,0,2.665,2.665,0,0,1,0,3.771l-6.4,6.4A2.66,2.66,0,0,1-3.088-4" transform="translate(12.155 15.73)" fill="#2bc700"></path></g><g id="Group_22" data-name="Group 22" transform="translate(0 21.333)"><path id="Path_24" data-name="Path 24" d="M-.908-8.175a2.667,2.667,0,0,1-2.667-2.667A21.358,21.358,0,0,1,17.758-32.175a2.667,2.667,0,0,1,2.667,2.667,2.667,2.667,0,0,1-2.667,2.667,16.018,16.018,0,0,0-16,16A2.667,2.667,0,0,1-.908-8.175" transform="translate(3.575 32.175)" fill="#023c58"></path></g><g id="Group_23" data-name="Group 23" transform="translate(32 0)"><path id="Path_25" data-name="Path 25" d="M-9.083-9.992a2.667,2.667,0,0,1-2.667-2.667A21.358,21.358,0,0,0-33.083-33.992a2.667,2.667,0,0,1-2.667-2.667,2.667,2.667,0,0,1,2.667-2.667A26.7,26.7,0,0,1-6.417-12.658,2.667,2.667,0,0,1-9.083-9.992" transform="translate(35.75 39.325)" fill="#023c58"></path></g></g></g></svg>