<svg xmlns="http://www.w3.org/2000/svg" xmlns:xlink="http://www.w3.org/1999/xlink" width="41.47" height="44.94" viewBox="0 0 41.47 44.94"><defs><clipPath id="clip-path"><path id="Path_214" data-name="Path 214" d="M0,0H41.47V-44.94H0Z" fill="none"></path></clipPath></defs><g id="Group_5408" data-name="Group 5408" transform="translate(0 44.94)"><g id="Group_130" data-name="Group 130" clip-path="url(#clip-path)"><g id="Group_127" data-name="Group 127" transform="translate(35.472)"><path id="Path_211" data-name="Path 211" d="M0,0H-29.474a5.93,5.93,0,0,1-4.862-2.488,5.93,5.93,0,0,1-.822-5.4l1.054-3.165a9.037,9.037,0,0,1,7.44-6.08,103.793,103.793,0,0,1,11.927-.844,103.863,103.863,0,0,1,11.928.844,9.037,9.037,0,0,1,7.438,6.08L5.683-7.886a5.919,5.919,0,0,1-.823,5.4A5.928,5.928,0,0,1,0,0M-14.737-14.98a100.772,100.772,0,0,0-11.562.822A6.024,6.024,0,0,0-31.261-10.1L-32.316-6.94a2.963,2.963,0,0,0,.411,2.7A2.966,2.966,0,0,0-29.474-3H0A2.966,2.966,0,0,0,2.43-4.239a2.968,2.968,0,0,0,.412-2.7L1.788-10.1a6.027,6.027,0,0,0-4.961-4.054,100.86,100.86,0,0,0-11.564-.822" fill="#fff"></path></g><g id="Group_128" data-name="Group 128" transform="translate(20.735 -19.474)"><path id="Path_212" data-name="Path 212" d="M0,0A12.747,12.747,0,0,1-12.733-12.733,12.747,12.747,0,0,1,0-25.466,12.748,12.748,0,0,1,12.733-12.733,12.748,12.748,0,0,1,0,0M0-22.47a9.748,9.748,0,0,0-9.737,9.737A9.748,9.748,0,0,0,0-3a9.748,9.748,0,0,0,9.737-9.737A9.748,9.748,0,0,0,0-22.47" fill="#fff"></path></g><g id="Group_129" data-name="Group 129" transform="translate(14.803 -30.65)"><path id="Path_213" data-name="Path 213" d="M0,0A1.5,1.5,0,0,1-1.5-1.468,7.44,7.44,0,0,1,.59-6.807a7.446,7.446,0,0,1,5.251-2.3A1.511,1.511,0,0,1,7.369-7.639,1.5,1.5,0,0,1,5.9-6.111a4.466,4.466,0,0,0-3.15,1.379A4.465,4.465,0,0,0,1.5-1.528,1.5,1.5,0,0,1,.031,0Z" fill="#2bc700"></path></g></g></g></svg>