<svg xmlns="http://www.w3.org/2000/svg" xmlns:xlink="http://www.w3.org/1999/xlink" width="126.5" height="97" viewBox="0 0 126.5 97"><defs><clipPath id="clip-path"><path id="Path_201" data-name="Path 201" d="M0-18.94H26v-26H0Z" transform="translate(0 44.94)" fill="none"></path></clipPath></defs><g id="Group_6207" data-name="Group 6207" transform="translate(-149.5 -4279.421)"><text id="SUCCESVERHALEN" transform="translate(160 4372.421)" fill="#103c58" font-size="12" font-family="Red Hat Display" font-weight="600"><tspan x="0" y="0">SUCCESVERHALEN</tspan></text><line id="Line_1304" data-name="Line 1304" y2="24" transform="translate(162.5 4316.421)" fill="none" stroke="#103c58" stroke-width="1"></line><g id="Group_5403" data-name="Group 5403" transform="translate(149.5 4324.361)"><g id="Group_115" data-name="Group 115" transform="translate(0 -44.94)" clip-path="url(#clip-path)"><g id="Group_112" data-name="Group 112" transform="translate(5.2 0)"><path id="Path_198" data-name="Path 198" d="M-13.889-13.889a.871.871,0,0,1-.322-.062,14.345,14.345,0,0,1-4.551-3.028.866.866,0,0,1-.025-1.225.865.865,0,0,1,1.225-.025A14.176,14.176,0,0,0-15.385-16.5a30.169,30.169,0,0,1-.769-3.3.869.869,0,0,1,.271-.79,5.615,5.615,0,0,0,1.994-4.129c0-3.584-3.888-6.5-8.667-6.5s-8.667,2.916-8.667,6.5c0,.106,0,.21.01.314a.867.867,0,0,1-.809.922.877.877,0,0,1-.922-.808c-.009-.142-.013-.285-.013-.428,0-4.54,4.665-8.233,10.4-8.233s10.4,3.693,10.4,8.233a7.22,7.22,0,0,1-2.209,5.076,28.246,28.246,0,0,0,1.28,4.571.866.866,0,0,1-.193.934.868.868,0,0,1-.612.253" transform="translate(32.956 32.956)" fill="#023c58"></path></g><g id="Group_113" data-name="Group 113" transform="translate(0 6.933)"><path id="Path_199" data-name="Path 199" d="M-1.263-13.889a.869.869,0,0,1-.613-.253.868.868,0,0,1-.193-.934A28.072,28.072,0,0,0-.788-19.647,7.221,7.221,0,0,1-3-24.723c0-4.54,4.665-8.233,10.4-8.233s10.4,3.693,10.4,8.233-4.665,8.233-10.4,8.233a12.753,12.753,0,0,1-3.73-.551A14.359,14.359,0,0,1-.942-13.951a.865.865,0,0,1-.321.062M7.4-31.223c-4.779,0-8.667,2.916-8.667,6.5A5.616,5.616,0,0,0,.731-20.594.869.869,0,0,1,1-19.8a30.061,30.061,0,0,1-.769,3.3,14.641,14.641,0,0,0,2.585-2.134.866.866,0,0,1,.91-.212,10.981,10.981,0,0,0,3.676.624c4.779,0,8.667-2.916,8.667-6.5s-3.888-6.5-8.667-6.5" transform="translate(2.997 32.956)" fill="#023c58"></path></g><g id="Group_114" data-name="Group 114" transform="translate(3.467 10.4)"><path id="Path_200" data-name="Path 200" d="M-.631-4.1A.867.867,0,0,1-1.5-4.97c0-2.3,2.786-4.767,6.933-4.767A.867.867,0,0,1,6.3-8.87.867.867,0,0,1,5.435-8c-3.174,0-5.2,1.8-5.2,3.033A.867.867,0,0,1-.631-4.1" transform="translate(1.498 9.737)" fill="#2bc700"></path></g></g></g></g></svg>