<svg xmlns="http://www.w3.org/2000/svg" xmlns:xlink="http://www.w3.org/1999/xlink" width="26.964" height="44.94" viewBox="0 0 26.964 44.94"><defs><clipPath id="clip-path"><path id="Path_210" data-name="Path 210" d="M0,0H26.964V-44.94H0Z" fill="none"></path></clipPath></defs><g id="Group_5407" data-name="Group 5407" transform="translate(0 44.94)"><g id="Group_125" data-name="Group 125" clip-path="url(#clip-path)"><g id="Group_117" data-name="Group 117" transform="translate(22.47)"><path id="Path_202" data-name="Path 202" d="M0,0H-17.976A4.5,4.5,0,0,1-22.47-4.494V-40.446a4.5,4.5,0,0,1,4.494-4.494H0a4.5,4.5,0,0,1,4.494,4.494V-4.494A4.5,4.5,0,0,1,0,0M-17.976-41.944a1.5,1.5,0,0,0-1.5,1.5V-4.494a1.5,1.5,0,0,0,1.5,1.5H0a1.5,1.5,0,0,0,1.5-1.5V-40.446a1.5,1.5,0,0,0-1.5-1.5Z" fill="#fff"></path></g><g id="Group_118" data-name="Group 118" transform="translate(22.47 -4.494)"><path id="Path_203" data-name="Path 203" d="M0,0H-17.976A4.5,4.5,0,0,1-22.47-4.494a1.5,1.5,0,0,1,1.5-1.5,1.5,1.5,0,0,1,1.5,1.5,1.5,1.5,0,0,0,1.5,1.5H0a1.5,1.5,0,0,0,1.5-1.5A1.5,1.5,0,0,1,3-5.992a1.5,1.5,0,0,1,1.5,1.5A4.5,4.5,0,0,1,0,0" fill="#fff"></path></g><g id="Group_119" data-name="Group 119" transform="translate(13.482 -37.45)"><path id="Path_204" data-name="Path 204" d="M0,0H-4.494a1.5,1.5,0,0,1-1.5-1.5A1.5,1.5,0,0,1-4.494-3H0A1.5,1.5,0,0,1,1.5-1.5,1.5,1.5,0,0,1,0,0" fill="#fff"></path></g><g id="Group_120" data-name="Group 120" transform="translate(19.474 -37.45)"><path id="Path_205" data-name="Path 205" d="M0,0H-1.5A1.5,1.5,0,0,1-3-1.5,1.5,1.5,0,0,1-1.5-3H0A1.5,1.5,0,0,1,1.5-1.5,1.5,1.5,0,0,1,0,0" fill="#fff"></path></g><g id="Group_121" data-name="Group 121" transform="translate(8.988 -14.98)"><path id="Path_206" data-name="Path 206" d="M0,0A1.5,1.5,0,0,1-1.5-1.5V-13.482A1.5,1.5,0,0,1,0-14.98a1.5,1.5,0,0,1,1.5,1.5V-1.5A1.5,1.5,0,0,1,0,0" fill="#2bc700"></path></g><g id="Group_122" data-name="Group 122" transform="translate(11.984 -23.968)"><path id="Path_207" data-name="Path 207" d="M0,0A1.491,1.491,0,0,1-1.059-.439L-3-2.376-4.933-.439a1.5,1.5,0,0,1-2.118,0,1.5,1.5,0,0,1,0-2.118l3-3a1.5,1.5,0,0,1,2.118,0l3,3a1.5,1.5,0,0,1,0,2.118A1.491,1.491,0,0,1,0,0" fill="#2bc700"></path></g><g id="Group_123" data-name="Group 123" transform="translate(17.976 -14.98)"><path id="Path_208" data-name="Path 208" d="M0,0A1.5,1.5,0,0,1-1.5-1.5V-13.482A1.5,1.5,0,0,1,0-14.98a1.5,1.5,0,0,1,1.5,1.5V-1.5A1.5,1.5,0,0,1,0,0" fill="#2bc700"></path></g><g id="Group_124" data-name="Group 124" transform="translate(17.976 -14.98)"><path id="Path_209" data-name="Path 209" d="M0,0A1.491,1.491,0,0,1-1.059-.439l-3-3a1.5,1.5,0,0,1,0-2.118,1.5,1.5,0,0,1,2.118,0L0-3.616,1.937-5.553a1.5,1.5,0,0,1,2.118,0,1.5,1.5,0,0,1,0,2.118l-3,3A1.491,1.491,0,0,1,0,0" fill="#2bc700"></path></g></g></g></svg>