<svg xmlns="http://www.w3.org/2000/svg" width="87.647" height="36.179" viewBox="0 0 87.647 36.179"><g id="Group_6170" data-name="Group 6170" transform="translate(-1187.03 -5876.411)"><g id="Group_6129" data-name="Group 6129"><path id="envelope" d="M43.716,59.882H4.522A4.527,4.527,0,0,0,0,64.4V91.538A4.527,4.527,0,0,0,4.522,96.06H43.716a4.527,4.527,0,0,0,4.522-4.522V64.4A4.527,4.527,0,0,0,43.716,59.882Zm0,3.015a1.5,1.5,0,0,1,.578.117L24.119,80.5,3.944,63.014a1.5,1.5,0,0,1,.578-.117Zm0,30.149H4.522a1.508,1.508,0,0,1-1.507-1.507V66.2L23.131,83.633a1.51,1.51,0,0,0,1.976,0L45.223,66.2V91.538A1.509,1.509,0,0,1,43.716,93.046Z" transform="translate(1226.439 5816.529)" fill="#023c58"></path><line id="Line_1305" data-name="Line 1305" x2="17" transform="translate(1204.53 5890)" fill="none" stroke="#2bc700" stroke-linecap="round" stroke-width="3"></line><line id="Line_1306" data-name="Line 1306" x2="23" transform="translate(1198.53 5897)" fill="none" stroke="#2bc700" stroke-linecap="round" stroke-width="3"></line><line id="Line_1307" data-name="Line 1307" x2="33" transform="translate(1188.53 5904)" fill="none" stroke="#2bc700" stroke-linecap="round" stroke-width="3"></line></g></g></svg>