<svg xmlns="http://www.w3.org/2000/svg" xmlns:xlink="http://www.w3.org/1999/xlink" width="50" height="49.999" viewBox="0 0 50 49.999"><defs><clipPath id="clip-path"><path id="Path_225" data-name="Path 225" d="M0,2.064H50v-50H0Z" transform="translate(0 47.935)" fill="none"></path></clipPath></defs><g id="Group_5417" data-name="Group 5417" transform="translate(0 47.935)"><g id="Group_143" data-name="Group 143" transform="translate(0 -47.935)" clip-path="url(#clip-path)"><g id="Group_141" data-name="Group 141" transform="translate(0 0)"><path id="Path_223" data-name="Path 223" d="M1.033,2.064q-1.1,0-2.207-.094A25.1,25.1,0,0,1-23.935-21.262,25.062,25.062,0,0,1-16.677-40.6,25.061,25.061,0,0,1,2.652-47.884a25.164,25.164,0,0,1,23.223,22.3,25,25,0,0,1-1.355,11.177,1.564,1.564,0,0,1-2,.937,1.561,1.561,0,0,1-.936-2,21.916,21.916,0,0,0,1.184-9.792,22.009,22.009,0,0,0-20.315-19.5A21.934,21.934,0,0,0-14.466-38.4a21.931,21.931,0,0,0-6.349,16.93A21.951,21.951,0,0,0-.909-1.144,21.732,21.732,0,0,0,12.909-4.577a1.469,1.469,0,0,0,.662-1.1,1.593,1.593,0,0,0-.461-1.3l-.3-.3A1.562,1.562,0,0,1,12.8-9.481a1.564,1.564,0,0,1,2.21-.006l.3.3a4.7,4.7,0,0,1,1.365,3.834,4.586,4.586,0,0,1-2.067,3.4A24.756,24.756,0,0,1,1.033,2.064" transform="translate(23.988 47.935)" fill="#103c58"></path></g><g id="Group_142" data-name="Group 142" transform="translate(9.35 8.883)"><path id="Path_224" data-name="Path 224" d="M.854,1.376c-4.393,0-7.883-2.1-13.242-7.458-6.743-6.743-8.327-10.53-7.056-16.879a13.021,13.021,0,0,1,6.357-8.825,1.562,1.562,0,0,1,1.8.293l7.734,7.734a1.562,1.562,0,0,1,0,2.209l-4.011,4.01a12.5,12.5,0,0,0,2.906,3.725,12.475,12.475,0,0,0,3.724,2.9l4.01-4.011a1.563,1.563,0,0,1,2.21,0l7.733,7.734a1.563,1.563,0,0,1,.293,1.8A13.02,13.02,0,0,1,4.493.974a18.493,18.493,0,0,1-3.638.4M-12.6-28.394a9.993,9.993,0,0,0-3.777,6.047c-.966,4.829-.173,7.68,6.2,14.056s9.227,7.168,14.056,6.2A9.984,9.984,0,0,0,9.925-5.867L4.186-11.606.871-8.292a2.526,2.526,0,0,1-2.7.378,14.528,14.528,0,0,1-5.031-3.691,14.567,14.567,0,0,1-3.692-5.031,2.52,2.52,0,0,1,.378-2.7l3.315-3.313ZM-.675-10.836h.017Z" transform="translate(19.845 31.951)" fill="#2bc700"></path></g></g></g></svg>