<svg xmlns="http://www.w3.org/2000/svg" id="check" width="26" height="26" viewBox="0 0 26 26"><path id="Path_67" data-name="Path 67" d="M13,0A13,13,0,1,0,26,13,13.015,13.015,0,0,0,13,0Zm0,23.636A10.636,10.636,0,1,1,23.636,13,10.648,10.648,0,0,1,13,23.636Z" fill="#103c58"></path><path id="Path_68" data-name="Path 68" d="M88.736,102.635l-6.371,7.04-2.92-3.227a1.052,1.052,0,0,0-1.593,0,1.339,1.339,0,0,0,0,1.76l3.716,4.107a1.075,1.075,0,0,0,.8.365h0a1.075,1.075,0,0,0,.8-.364l7.168-7.92a1.339,1.339,0,0,0,0-1.76A1.052,1.052,0,0,0,88.736,102.635Z" transform="translate(-71.09 -94.475)" fill="#2bc700"></path></svg>