<svg xmlns="http://www.w3.org/2000/svg" width="87.648" height="36.179" viewBox="0 0 87.648 36.179"><g id="Group_6132" data-name="Group 6132" transform="translate(-1198.045 -8507.411)"><path id="envelope" d="M43.716,59.882H4.522A4.527,4.527,0,0,0,0,64.4V91.538A4.527,4.527,0,0,0,4.522,96.06H43.716a4.527,4.527,0,0,0,4.522-4.522V64.4A4.527,4.527,0,0,0,43.716,59.882Zm0,3.015a1.5,1.5,0,0,1,.578.117L24.119,80.5,3.944,63.014a1.5,1.5,0,0,1,.578-.117Zm0,30.149H4.522a1.508,1.508,0,0,1-1.507-1.507V66.2L23.131,83.633a1.51,1.51,0,0,0,1.976,0L45.223,66.2V91.538A1.509,1.509,0,0,1,43.716,93.046Z" transform="translate(1237.455 8447.529)" fill="#023c58"></path><line id="Line_1341" data-name="Line 1341" x2="17" transform="translate(1215.545 8521)" fill="none" stroke="#2bc700" stroke-linecap="round" stroke-width="3"></line><line id="Line_1342" data-name="Line 1342" x2="23" transform="translate(1209.545 8528)" fill="none" stroke="#2bc700" stroke-linecap="round" stroke-width="3"></line><line id="Line_1343" data-name="Line 1343" x2="33" transform="translate(1199.545 8535)" fill="none" stroke="#2bc700" stroke-linecap="round" stroke-width="3"></line></g></svg>