<svg xmlns="http://www.w3.org/2000/svg" xmlns:xlink="http://www.w3.org/1999/xlink" width="563.116" height="659.777" viewBox="0 0 563.116 659.777"><defs><clipPath id="clip-path"><rect id="Rectangle_1840" data-name="Rectangle 1840" width="288.656" height="583.873" transform="translate(0 0)" fill="none"></rect></clipPath></defs><g id="Group_6147" data-name="Group 6147" transform="translate(-1030 -1538.097)"><path id="cloud" d="M202.568,61.062a47.372,47.372,0,0,0-9.392.939,38.734,38.734,0,0,0-54.248-27.539A51.7,51.7,0,1,0,41.735,69.749a43.1,43.1,0,0,0,1.295,86.174H202.568a47.43,47.43,0,1,0,0-94.861Zm0,0" transform="translate(1030.001 1891.608)" fill="#e5f1f8"></path><path id="cloud-2" data-name="cloud" d="M164.579,49.684a38.488,38.488,0,0,0-7.631.763,31.47,31.47,0,0,0-44.074-22.374A42,42,0,1,0,33.908,56.742a35.015,35.015,0,0,0,1.052,70.013h129.62a38.536,38.536,0,1,0,0-77.071Zm0,0" transform="translate(1390.001 1537.706)" fill="#e5f1f8"></path><path id="cloud-3" data-name="cloud" d="M42.876,55.78a42.42,42.42,0,0,1,8.491.857A35.319,35.319,0,0,1,69.849,32.056a34.7,34.7,0,0,1,30.557-.559A46.613,46.613,0,0,1,160.287,3.238,47.329,47.329,0,0,1,188.269,63.71a39.354,39.354,0,0,1-1.171,78.671H42.876a43.3,43.3,0,0,1,0-86.6Zm0,0" transform="translate(1358.002 2055.493)" fill="#e5f1f8"></path><g id="Group_5442" data-name="Group 5442" transform="translate(1187 1573.6)"><g id="Group_5433" data-name="Group 5433" transform="translate(0 0)" clip-path="url(#clip-path)"><path id="Path_1295" data-name="Path 1295" d="M284.837,92.328h-.55V34.636A34.636,34.636,0,0,0,249.652,0H39.708A34.636,34.636,0,0,0,5.072,34.636V92.328h-.55A4.522,4.522,0,0,0,0,96.851v39.908a4.522,4.522,0,0,0,4.522,4.522h.55V150.8h-.55A4.522,4.522,0,0,0,0,155.321v39.908a4.522,4.522,0,0,0,4.522,4.522h.55v349.5a34.636,34.636,0,0,0,34.636,34.636H249.652a34.636,34.636,0,0,0,34.636-34.636V165.756h.55a4.522,4.522,0,0,0,4.522-4.522V96.851a4.522,4.522,0,0,0-4.522-4.522" transform="translate(0 0.198)" fill="#333343"></path><path id="Path_1296" data-name="Path 1296" d="M286.636,598.253H83.842A28.132,28.132,0,0,1,55.71,570.121V59.632A28.132,28.132,0,0,1,83.842,31.5H286.636a28.132,28.132,0,0,1,28.132,28.132V570.121a28.132,28.132,0,0,1-28.132,28.132" transform="translate(-40.559 -22.735)" fill="#e5f1f8"></path></g></g><line id="Line_1393" data-name="Line 1393" x1="200" y2="494" transform="translate(1240.5 1617.5)" fill="none" stroke="#2bc700" stroke-width="2"></line><text id="Professioneel" transform="translate(1232 1644)" fill="#103c58" font-size="18" font-family="Red Hat Display" font-weight="700"><tspan x="0" y="0">Professioneel</tspan></text><text id="Priv&#xE9;" transform="translate(1432 2070)" fill="#103c58" font-size="18" font-family="Red Hat Display" font-weight="700"><tspan x="-44" y="0">Privé</tspan></text><text id="Tussen_9:00_-_18:00" data-name="Tussen 9:00 - 18:00" transform="translate(1232 1671)" fill="#2bc700" font-size="16" font-family="Red Hat Display" font-weight="700"><tspan x="0" y="0">Tussen 9:00 - 18:00</tspan></text><text id="Altijd_beschikbaar" data-name="Altijd beschikbaar" transform="translate(1432 2097)" fill="#2bc700" font-size="16" font-family="Red Hat Display" font-weight="700"><tspan x="-136" y="0">Altijd beschikbaar</tspan></text><ellipse id="Ellipse_34" data-name="Ellipse 34" cx="26.5" cy="26" rx="26.5" ry="26" transform="translate(1309 1854)" fill="#2bc700"></ellipse><text id="Phone" transform="translate(1336 1889)" fill="#fff" font-size="26" font-family="SegoeUI, Segoe UI"><tspan x="-36" y="0">Phone</tspan></text></g></svg>