<svg xmlns="http://www.w3.org/2000/svg" width="36.498" height="36.501" viewBox="0 0 36.498 36.501"><g id="Icon_feather-instagram" data-name="Icon feather-instagram" transform="translate(-3.001 -3)"><path id="Exclusion_1" data-name="Exclusion 1" d="M8179.625,9963.751h-18.249a9.135,9.135,0,0,1-9.125-9.125v-18.252a9.134,9.134,0,0,1,9.125-9.124h18.249a9.134,9.134,0,0,1,9.125,9.124v18.252A9.135,9.135,0,0,1,8179.625,9963.751Zm-9.049-29.2a10.912,10.912,0,1,0,1.6.12A10.58,10.58,0,0,0,8170.575,9934.554Zm10.636-3.471a2.491,2.491,0,1,0,.366.027A2.476,2.476,0,0,0,8181.211,9931.083Zm-10.629,22.2a7.865,7.865,0,0,1-.007-15.73,8.14,8.14,0,0,1,1.158.085,7.865,7.865,0,0,1-1.15,15.646Z" transform="translate(-8149.25 -9924.25)" fill="#0ba8e1"></path><path id="Path_2757" data-name="Path 2757" d="M26.25,9.75h0" transform="translate(5.037 1.462)" fill="#0ba8e1"></path></g></svg>