<svg xmlns="http://www.w3.org/2000/svg" width="256.502" height="57.536" viewBox="0 0 256.502 57.536"><g id="Group_6170" data-name="Group 6170" transform="translate(-83.499 -72.733)"><g id="Group_15" data-name="Group 15" transform="translate(-118.016 33.344)"><g id="Group_10" data-name="Group 10" transform="translate(201.514 39.389)"><path id="Path_1" data-name="Path 1" d="M-11.937-42.342C-38.6-62.493-19.654-108.068,6.956-82.215l5.033,4.891a7.9,7.9,0,0,1,7.578-6.955c-9.841-13.1-23.433-19.3-33.894-13.3-18.207,10.45-19.462,43.483,2.39,55.236" transform="translate(28.157 99.878)" fill="#103c58"></path></g><g id="Group_11" data-name="Group 11" transform="translate(243.799 57.558)"><path id="Path_2" data-name="Path 2" d="M-4.636,0a6.3,6.3,0,0,1,6.3,6.3,6.3,6.3,0,0,1-6.3,6.3,6.3,6.3,0,0,1-6.3-6.3A6.3,6.3,0,0,1-4.636,0" transform="translate(10.936)" fill="#103c58"></path></g><g id="Group_12" data-name="Group 12" transform="translate(215.224 66.147)"><path id="Path_3" data-name="Path 3" d="M-5.058,0A6.873,6.873,0,0,1,1.815,6.873a6.873,6.873,0,0,1-6.873,6.873,6.873,6.873,0,0,1-6.873-6.873A6.875,6.875,0,0,1-5.058,0" transform="translate(11.931)" fill="#2bc700"></path></g><g id="Group_13" data-name="Group 13" transform="translate(222.924 39.479)"><path id="Path_4" data-name="Path 4" d="M-22.545,0C4.116,20.151-14.828,65.726-41.438,39.871l-3.634-3.535A8.249,8.249,0,0,1-53.165,43h-.015c9.967,12.223,24.216,17.236,34.385,11.4C-.594,43.949-.693,11.752-22.545,0" transform="translate(53.18)" fill="#2bc700"></path></g></g><g id="Group_16" data-name="Group 16" transform="translate(13.984 -25.266)"><g id="Group_14" data-name="Group 14" transform="translate(265.927 114.584)"><path id="Path_5" data-name="Path 5" d="M-3.832-19.16V-32.882a4.641,4.641,0,0,1,1.71-1.463,5.2,5.2,0,0,1,2.357-.513,4.02,4.02,0,0,1,3,1.121,4.177,4.177,0,0,1,1.1,3.059V-19.16H9.547V-31.437a8.309,8.309,0,0,0-.989-4.124A7.166,7.166,0,0,0,5.8-38.336a8.114,8.114,0,0,0-4.086-1.007,8,8,0,0,0-5.549,2.014v-1.634H-9.039v19.8Zm32.478-.3a12.755,12.755,0,0,0,3.744-2.167l-3.421-3.116a5.551,5.551,0,0,1-1.919,1.178,6.95,6.95,0,0,1-2.451.418,5.884,5.884,0,0,1-2.49-.532,5.345,5.345,0,0,1-1.938-1.482,5.925,5.925,0,0,1-1.121-2.129H33.72v-1.368A11.4,11.4,0,0,0,32.447-34.1a9.98,9.98,0,0,0-3.478-3.8A9.2,9.2,0,0,0,23.913-39.3a9.98,9.98,0,0,0-5.169,1.368,10.134,10.134,0,0,0-3.668,3.687,10.16,10.16,0,0,0-1.349,5.207,9.839,9.839,0,0,0,1.406,5.208,10.358,10.358,0,0,0,3.82,3.687,10.715,10.715,0,0,0,5.378,1.368,12.788,12.788,0,0,0,4.314-.684m-8.7-13.664a4.6,4.6,0,0,1,1.653-1.388,4.866,4.866,0,0,1,2.2-.494,4.518,4.518,0,0,1,2.148.513,5.23,5.23,0,0,1,1.672,1.407,5.136,5.136,0,0,1,.97,2.071H18.973a5.863,5.863,0,0,1,.969-2.109M48.9-19.008a10.687,10.687,0,0,0,2-.418v-4.3a7.689,7.689,0,0,1-1.388.361,9.224,9.224,0,0,1-1.387.1A3.032,3.032,0,0,1,46-23.854a2.644,2.644,0,0,1-.608-1.957V-34.63h5.663v-4.333H45.388V-45.2l-5.207,1.178v5.056H36.114v4.333h4.067v9.882a5.563,5.563,0,0,0,1.691,4.39,7.318,7.318,0,0,0,5,1.5,16.671,16.671,0,0,0,2.034-.152" transform="translate(9.039 45.196)" fill="#2bc700"></path></g><path id="Path_18" data-name="Path 18" d="M5.511-47.936H0V-21.33H5.511Zm0,26.605,10.832,0V-35.051a4.647,4.647,0,0,1,1.71-1.464,5.207,5.207,0,0,1,2.357-.513,4.022,4.022,0,0,1,3,1.121,4.177,4.177,0,0,1,1.1,3.059v11.517h5.207V-33.607a8.315,8.315,0,0,0-.988-4.124,7.17,7.17,0,0,0-2.756-2.774,8.112,8.112,0,0,0-4.086-1.008A8,8,0,0,0,16.343-39.5v-1.634H11.136v19.8Zm29.323.152a10.641,10.641,0,0,0,2-.418v-4.295a7.732,7.732,0,0,1-1.388.361,9.218,9.218,0,0,1-1.387.1,3.032,3.032,0,0,1-2.129-.589,2.644,2.644,0,0,1-.608-1.957V-36.8h5.663v-4.333H42.15v-6.234l-5.208,1.179v5.055H32.876V-36.8h4.066v9.882a5.562,5.562,0,0,0,1.691,4.39,7.318,7.318,0,0,0,5,1.5,16.671,16.671,0,0,0,2.034-.152m19.612-.456A12.738,12.738,0,0,0,69.022-23.8L65.6-26.918a5.558,5.558,0,0,1-1.919,1.179,6.966,6.966,0,0,1-2.452.418,5.89,5.89,0,0,1-2.489-.532A5.348,5.348,0,0,1,56.8-27.336a5.923,5.923,0,0,1-1.122-2.128H70.352v-1.369a11.4,11.4,0,0,0-1.273-5.435,9.979,9.979,0,0,0-3.478-3.8,9.2,9.2,0,0,0-5.055-1.406,9.983,9.983,0,0,0-5.17,1.368,10.138,10.138,0,0,0-3.668,3.687,10.166,10.166,0,0,0-1.349,5.208,9.839,9.839,0,0,0,1.406,5.207,10.358,10.358,0,0,0,3.82,3.687,10.715,10.715,0,0,0,5.378,1.368,12.788,12.788,0,0,0,4.314-.684M56.574-35.3a4.6,4.6,0,0,1,1.653-1.387,4.856,4.856,0,0,1,2.2-.494,4.521,4.521,0,0,1,2.147.513,5.238,5.238,0,0,1,1.673,1.407,5.134,5.134,0,0,1,.969,2.072H55.6a5.872,5.872,0,0,1,.97-2.11M79.892-21.331v-27.48l-5.207.874v26.605Zm10.414,0v-27.48l-5.208.874v26.605Zm10.413-19.8H95.513v19.8h5.207Zm0,19.8-.513-23.033a2.884,2.884,0,0,0,.855-2.091,2.866,2.866,0,0,0-.855-2.11,2.865,2.865,0,0,0-2.109-.855,2.882,2.882,0,0,0-2.091.855,2.832,2.832,0,0,0-.874,2.11,2.85,2.85,0,0,0,.874,2.091,2.85,2.85,0,0,0,2.091.874,2.832,2.832,0,0,0,2.109-.874" transform="translate(160 161.951)" fill="#103c58"></path></g></g></svg>