<svg xmlns="http://www.w3.org/2000/svg" xmlns:xlink="http://www.w3.org/1999/xlink" width="47.936" height="47.935" viewBox="0 0 47.936 47.935"><defs><clipPath id="clip-path"><path id="Path_225" data-name="Path 225" d="M0,0H47.936V-47.935H0Z" fill="none"></path></clipPath></defs><g id="Group_6131" data-name="Group 6131" transform="translate(-837.85 -8501.533)"><g id="Group_5451" data-name="Group 5451" transform="translate(837.85 8549.468)"><g id="Group_143" data-name="Group 143" clip-path="url(#clip-path)"><g id="Group_141" data-name="Group 141" transform="translate(23.988)"><path id="Path_223" data-name="Path 223" d="M0,0Q-1.053,0-2.116-.09A24.063,24.063,0,0,1-23.937-22.363a24.027,24.027,0,0,1,6.958-18.543,24.027,24.027,0,0,1,18.531-6.98A24.126,24.126,0,0,1,23.816-26.511a23.965,23.965,0,0,1-1.3,10.716,1.5,1.5,0,0,1-1.919.9,1.5,1.5,0,0,1-.9-1.919A21.011,21.011,0,0,0,20.836-26.2,21.1,21.1,0,0,0,1.36-44.9a21.028,21.028,0,0,0-16.219,6.107,21.025,21.025,0,0,0-6.087,16.231A21.045,21.045,0,0,0-1.862-3.076,20.835,20.835,0,0,0,11.386-6.367a1.408,1.408,0,0,0,.635-1.051,1.527,1.527,0,0,0-.442-1.243l-.29-.289a1.5,1.5,0,0,1-.006-2.118,1.5,1.5,0,0,1,2.119-.006l.289.288A4.5,4.5,0,0,1,15-7.11a4.4,4.4,0,0,1-1.982,3.255A23.734,23.734,0,0,1,0,0" fill="#2bc700"></path></g><g id="Group_142" data-name="Group 142" transform="translate(28.809 -7.467)"><path id="Path_224" data-name="Path 224" d="M0,0C-4.212,0-7.558-2.013-12.695-7.15c-6.465-6.465-7.983-10.1-6.765-16.182a12.483,12.483,0,0,1,6.095-8.461,1.5,1.5,0,0,1,1.729.281L-4.221-24.1a1.5,1.5,0,0,1,0,2.118l-3.845,3.844A11.985,11.985,0,0,0-5.28-14.564a11.961,11.961,0,0,0,3.57,2.785l3.844-3.845a1.5,1.5,0,0,1,2.119,0l7.414,7.415a1.5,1.5,0,0,1,.281,1.729,12.483,12.483,0,0,1-8.46,6.1A17.73,17.73,0,0,1,0,0M-12.9-28.541a9.581,9.581,0,0,0-3.621,5.8c-.926,4.63-.166,7.363,5.946,13.476S-1.731-2.4,2.9-3.322A9.572,9.572,0,0,0,8.7-6.944l-5.5-5.5L.016-9.269a2.421,2.421,0,0,1-2.591.362A13.928,13.928,0,0,1-7.4-12.446a13.966,13.966,0,0,1-3.54-4.823,2.416,2.416,0,0,1,.362-2.593L-7.4-23.038ZM-1.466-11.708h.016Z" fill="#023c58"></path></g></g></g></g></svg>