<svg xmlns="http://www.w3.org/2000/svg" xmlns:xlink="http://www.w3.org/1999/xlink" width="38.4" height="64" viewBox="0 0 38.4 64"><defs><clipPath id="clip-path"><path id="Path_210" data-name="Path 210" d="M0,19.06H38.4v-64H0Z" transform="translate(0 44.94)" fill="none"></path></clipPath></defs><g id="Group_5418" data-name="Group 5418" transform="translate(0 44.94)"><g id="Group_125" data-name="Group 125" transform="translate(0 -44.94)" clip-path="url(#clip-path)"><g id="Group_117" data-name="Group 117"><path id="Path_202" data-name="Path 202" d="M9.53,19.06h-25.6a6.407,6.407,0,0,1-6.4-6.4v-51.2a6.407,6.407,0,0,1,6.4-6.4H9.53a6.407,6.407,0,0,1,6.4,6.4v51.2a6.407,6.407,0,0,1-6.4,6.4m-25.6-59.733A2.136,2.136,0,0,0-18.2-38.54v51.2a2.136,2.136,0,0,0,2.133,2.133H9.53a2.136,2.136,0,0,0,2.133-2.133v-51.2A2.136,2.136,0,0,0,9.53-40.673Z" transform="translate(22.47 44.94)" fill="#103c58"></path></g><g id="Group_118" data-name="Group 118" transform="translate(0 49.067)"><path id="Path_203" data-name="Path 203" d="M9.53,2.541h-25.6a6.407,6.407,0,0,1-6.4-6.4,2.134,2.134,0,0,1,2.133-2.133A2.134,2.134,0,0,1-18.2-3.859,2.136,2.136,0,0,0-16.07-1.725H9.53a2.136,2.136,0,0,0,2.133-2.133A2.134,2.134,0,0,1,13.8-5.992,2.134,2.134,0,0,1,15.93-3.859a6.407,6.407,0,0,1-6.4,6.4" transform="translate(22.47 5.992)" fill="#103c58"></path></g><g id="Group_119" data-name="Group 119" transform="translate(10.667 6.4)"><path id="Path_204" data-name="Path 204" d="M2.541,1.271h-6.4A2.134,2.134,0,0,1-5.992-.863,2.134,2.134,0,0,1-3.859-3h6.4A2.134,2.134,0,0,1,4.675-.863,2.134,2.134,0,0,1,2.541,1.271" transform="translate(5.992 2.996)" fill="#103c58"></path></g><g id="Group_120" data-name="Group 120" transform="translate(23.467 6.4)"><path id="Path_205" data-name="Path 205" d="M1.271,1.271H-.863A2.134,2.134,0,0,1-3-.863,2.134,2.134,0,0,1-.863-3H1.271A2.134,2.134,0,0,1,3.4-.863,2.134,2.134,0,0,1,1.271,1.271" transform="translate(2.996 2.996)" fill="#103c58"></path></g><g id="Group_121" data-name="Group 121" transform="translate(10.667 21.333)"><path id="Path_206" data-name="Path 206" d="M.635,6.353A2.134,2.134,0,0,1-1.5,4.22V-12.847A2.134,2.134,0,0,1,.635-14.98a2.134,2.134,0,0,1,2.133,2.133V4.22A2.134,2.134,0,0,1,.635,6.353" transform="translate(1.498 14.98)" fill="#2bc700"></path></g><g id="Group_122" data-name="Group 122" transform="translate(6.4 21.334)"><path id="Path_207" data-name="Path 207" d="M3.177,2.541a2.123,2.123,0,0,1-1.508-.625L-1.09-.842-3.849,1.916a2.133,2.133,0,0,1-3.016,0,2.133,2.133,0,0,1,0-3.016L-2.6-5.367a2.132,2.132,0,0,1,3.016,0L4.685-1.1a2.133,2.133,0,0,1,0,3.016,2.123,2.123,0,0,1-1.508.625" transform="translate(7.49 5.992)" fill="#2bc700"></path></g><g id="Group_123" data-name="Group 123" transform="translate(23.467 21.333)"><path id="Path_208" data-name="Path 208" d="M.635,6.353A2.134,2.134,0,0,1-1.5,4.22V-12.847A2.134,2.134,0,0,1,.635-14.98a2.134,2.134,0,0,1,2.133,2.133V4.22A2.134,2.134,0,0,1,.635,6.353" transform="translate(1.498 14.98)" fill="#2bc700"></path></g><g id="Group_124" data-name="Group 124" transform="translate(19.2 34.134)"><path id="Path_209" data-name="Path 209" d="M1.906,2.541A2.123,2.123,0,0,1,.4,1.916L-3.869-2.351a2.133,2.133,0,0,1,0-3.016,2.133,2.133,0,0,1,3.016,0L1.906-2.608,4.664-5.367a2.132,2.132,0,0,1,3.016,0,2.132,2.132,0,0,1,0,3.016L3.414,1.916a2.123,2.123,0,0,1-1.508.625" transform="translate(4.494 5.992)" fill="#2bc700"></path></g></g></g></svg>