<svg xmlns="http://www.w3.org/2000/svg" id="united-kingdom" width="15.53" height="15.905" viewBox="0 0 15.53 15.905"><ellipse id="Ellipse_3" data-name="Ellipse 3" cx="7.647" cy="7.952" rx="7.647" ry="7.952" transform="translate(0 0)" fill="#fff"></ellipse><g id="Group_1" data-name="Group 1" transform="translate(0.342 0.492)"><path id="Path_5" data-name="Path 5" d="M10.15,100.142a7.7,7.7,0,0,0-1.331,2.689h4.02Z" transform="translate(-8.819 -97.386)" fill="#0052b4"></path><path id="Path_6" data-name="Path 6" d="M374.025,102.832a7.7,7.7,0,0,0-1.331-2.689l-2.689,2.689Z" transform="translate(-359.103 -97.387)" fill="#0052b4"></path><path id="Path_7" data-name="Path 7" d="M8.819,322.784a7.7,7.7,0,0,0,1.331,2.689l2.689-2.689Z" transform="translate(-8.819 -313.308)" fill="#0052b4"></path><path id="Path_8" data-name="Path 8" d="M325.471,10.15a7.7,7.7,0,0,0-2.689-1.331v4.02Z" transform="translate(-313.306 -8.819)" fill="#0052b4"></path><path id="Path_9" data-name="Path 9" d="M100.142,372.694a7.7,7.7,0,0,0,2.689,1.331v-4.02Z" transform="translate(-97.386 -359.103)" fill="#0052b4"></path><path id="Path_10" data-name="Path 10" d="M102.831,8.819a7.7,7.7,0,0,0-2.689,1.331l2.689,2.689Z" transform="translate(-97.386 -8.819)" fill="#0052b4"></path><path id="Path_11" data-name="Path 11" d="M322.783,374.025a7.7,7.7,0,0,0,2.689-1.331l-2.689-2.689Z" transform="translate(-313.306 -359.103)" fill="#0052b4"></path><path id="Path_12" data-name="Path 12" d="M370.005,322.784l2.689,2.689a7.7,7.7,0,0,0,1.331-2.689Z" transform="translate(-359.103 -313.308)" fill="#0052b4"></path></g><g id="Group_2" data-name="Group 2" transform="translate(0.076 0.226)"><path id="Path_13" data-name="Path 13" d="M15.388,6.719H8.735V.065a7.8,7.8,0,0,0-2.016,0V6.719H.065a7.8,7.8,0,0,0,0,2.016H6.719v6.654a7.8,7.8,0,0,0,2.016,0V8.735h6.654a7.8,7.8,0,0,0,0-2.016Z" transform="translate(0 0)" fill="#d80027"></path><path id="Path_14" data-name="Path 14" d="M322.783,322.783l3.448,3.448q.238-.238.454-.5l-2.952-2.952h-.95Z" transform="translate(-313.04 -313.04)" fill="#d80027"></path><path id="Path_15" data-name="Path 15" d="M78.428,322.784h0l-3.448,3.448q.238.238.5.454l2.952-2.952Z" transform="translate(-72.717 -313.041)" fill="#d80027"></path><path id="Path_16" data-name="Path 16" d="M63.835,78.428h0L60.387,74.98q-.238.238-.454.5l2.952,2.952h.95Z" transform="translate(-58.124 -72.717)" fill="#d80027"></path><path id="Path_17" data-name="Path 17" d="M322.783,63.836l3.448-3.448q-.238-.238-.5-.454l-2.952,2.952Z" transform="translate(-313.04 -58.125)" fill="#d80027"></path></g></svg>